<svg width="24" height="24" viewBox="0 0 24 24" fill="none" xmlns="http://www.w3.org/2000/svg">
<path d="M17.6573 6.65733C17.211 6.21101 16.4874 6.21101 16.0411 6.65733L12.0011 10.6973L7.96002 6.65622C7.51371 6.20991 6.79009 6.20991 6.34378 6.65622C5.89746 7.10254 5.89746 7.82615 6.34378 8.27247L10.3849 12.3136L6.34362 16.3548C5.89731 16.8011 5.89731 17.5247 6.34362 17.971C6.78993 18.4173 7.51355 18.4173 7.95986 17.971L12.0011 13.9298L16.0412 17.9699C16.4876 18.4162 17.2112 18.4162 17.6575 17.9699C18.1038 17.5236 18.1038 16.8 17.6575 16.3537L13.6173 12.3136L17.6573 8.27357C18.1036 7.82726 18.1036 7.10364 17.6573 6.65733Z" fill="white"/>
</svg>
