<svg width="24" height="25" viewBox="0 0 24 25" fill="none" xmlns="http://www.w3.org/2000/svg">
<g id="BetR Icons">
<g id="Union">
<path fill-rule="evenodd" clip-rule="evenodd" d="M13.3185 11.0325C14.4546 12.1506 16.232 12.2612 17.2868 11.2231C18.3417 10.1849 18.2293 8.43564 17.0932 7.31753C15.9571 6.19941 14.1798 6.08876 13.1249 7.12695C12.07 8.16514 12.1824 9.91436 13.3185 11.0325ZM16.3752 10.3258C15.8132 10.8789 14.8246 10.8473 14.1656 10.1988C13.5066 9.5502 13.4746 8.57726 14.0365 8.02418C14.5985 7.4711 15.5871 7.50266 16.2461 8.15123C16.9051 8.79981 16.9372 9.77274 16.3752 10.3258Z" fill="#23262B"/>
<path fill-rule="evenodd" clip-rule="evenodd" d="M8.43327 19.0227C8.70762 18.825 8.91934 18.6003 9.05647 18.3629L9.73859 19.0342C9.97713 19.2689 10.3715 19.3085 10.618 19.0659L11.2035 18.4897C11.3766 18.3193 11.4082 18.0765 11.329 17.8661C11.5576 17.7838 11.7817 17.6988 12.0013 17.6111C11.9727 17.792 11.9237 18.0107 11.8548 18.2619C11.6584 18.9785 11.3294 19.8584 10.9956 20.6639C10.8013 21.1325 11.0003 21.6153 11.3255 21.8935C11.6551 22.1755 12.1813 22.2994 12.6157 21.9943C16.415 19.3258 16.889 16.7169 16.2087 15.2494C21.0051 11.5662 22.1136 6.31364 21.9911 3.19429C21.9804 2.92115 21.8364 2.6836 21.633 2.52925C21.476 2.32937 21.2346 2.188 20.9569 2.17851C17.7725 2.0697 12.4874 3.26819 8.78818 8.09223C7.25932 7.57756 4.74866 8.18243 2.18048 11.7242C1.87046 12.1517 1.99633 12.6696 2.28282 12.9939C2.56552 13.314 3.05608 13.5098 3.53224 13.3187C4.35065 12.9901 5.2447 12.6663 5.97282 12.473C6.12376 12.4329 6.26348 12.3996 6.39074 12.3732C6.31559 12.5624 6.24242 12.7548 6.1713 12.9505C6.0166 12.9457 5.86039 12.9969 5.7414 13.114L5.15588 13.6903C4.90943 13.9328 4.94961 14.321 5.18816 14.5557L6.04596 15.4C5.80471 15.5349 5.57637 15.7433 5.37549 16.0133C5.27867 16.1435 5.2007 16.3283 5.13457 16.5349C5.0673 16.7449 5.00757 16.9928 4.95339 17.2595C4.84529 17.7917 4.75637 18.4138 4.67454 18.9863L4.67407 18.9896C4.64282 19.2083 4.61259 19.4198 4.58258 19.6175L4.54568 19.8608L4.79285 19.8245C4.91483 19.8065 5.04175 19.7885 5.17232 19.7698L5.26292 19.7569C5.8611 19.6715 6.5254 19.5767 7.09684 19.4623C7.38317 19.405 7.64994 19.3421 7.87573 19.2718C8.09769 19.2027 8.29567 19.1219 8.43327 19.0227ZM4.80616 19.6385L4.95672 19.6167L5.14627 19.5896L5.23318 19.5772C6.43379 19.4058 7.87375 19.2003 8.32399 18.8758C8.60054 18.6765 8.80061 18.4543 8.92012 18.2287C8.92807 18.2136 8.93566 18.1986 8.9429 18.1836C8.82687 18.4246 8.61885 18.6633 8.32399 18.8758C7.87375 19.2003 6.43379 19.4058 5.23318 19.5772L5.14627 19.5896C5.01561 19.6082 4.88809 19.6262 4.76562 19.6442C4.79574 19.4456 4.82607 19.2335 4.85729 19.0151C4.83573 19.1659 4.81453 19.3138 4.79359 19.4563L4.77594 19.5753L4.76562 19.6442L4.80616 19.6385ZM6.36579 15.457C6.36572 15.457 6.36586 15.457 6.36579 15.457V15.457ZM6.29408 13.1547C6.39376 12.8741 6.49768 12.6004 6.60552 12.3334C6.63203 12.2677 6.65878 12.2025 6.68576 12.1377C6.61925 12.1463 6.5479 12.1576 6.47207 12.1716C6.3092 12.2017 6.12561 12.2439 5.92465 12.2972C6.21917 12.219 6.47638 12.1648 6.68576 12.1377C6.54897 12.4663 6.41828 12.8051 6.29408 13.1547C6.2941 13.1547 6.29406 13.1547 6.29408 13.1547ZM8.99834 18.0482C8.99832 18.0483 8.99837 18.0481 8.99834 18.0482V18.0482ZM11.0564 17.7691C11.1181 17.7476 11.1795 17.7259 11.2406 17.704C11.5089 17.6079 11.7707 17.5079 12.0263 17.4044L12.0456 17.3965C12.1025 17.3734 12.1591 17.3501 12.2153 17.3266C12.2148 17.3513 12.2136 17.3783 12.2115 17.408C12.2087 17.4467 12.2047 17.4876 12.1993 17.5308C12.1733 17.742 12.1167 18.0055 12.0334 18.3093C12.1337 17.9434 12.1953 17.636 12.2115 17.408C12.2136 17.3783 12.2148 17.3513 12.2153 17.3266C11.8427 17.4821 11.4567 17.6298 11.0564 17.7691C11.0564 17.7691 11.0563 17.769 11.0564 17.7691ZM11.1669 20.7326C11.1668 20.7327 11.1669 20.7326 11.1669 20.7326V20.7326ZM15.976 15.1962C15.976 15.1962 15.9761 15.1962 15.976 15.1962V15.1962ZM8.07329 17.4786L8.09994 17.4215L7.00249 16.3414L6.94445 16.3676C6.84757 16.4117 6.74981 16.4581 6.70889 16.4819C6.63563 16.5246 6.52493 16.6128 6.39858 16.7826C6.1699 17.09 6.02621 17.5623 5.86499 18.5622C6.87234 18.4018 7.33741 18.2422 7.65161 18.0158C7.82418 17.8915 7.91378 17.7825 7.95716 17.7104C7.98139 17.6701 8.02847 17.5739 8.07329 17.4786ZM6.95997 11.077C6.86423 11.0726 6.76874 11.0751 6.67676 11.0814C6.3484 11.104 5.96369 11.1834 5.56859 11.2883C4.97004 11.4472 4.28767 11.681 3.63129 11.9296C5.53284 9.54026 7.12409 9.10872 8.02702 9.17319C7.64715 9.76129 7.28985 10.3949 6.95997 11.077ZM3.09078 12.3359C3.09075 12.3359 3.09081 12.3359 3.09078 12.3359C5.40249 9.16786 7.36121 8.82737 8.33987 9.03264C8.33983 9.03271 8.33991 9.03258 8.33987 9.03264C8.27723 9.0195 8.21044 9.00879 8.13993 9.00073C7.14202 8.88656 5.37274 9.34015 3.29836 12.0577C3.2295 12.1479 3.1603 12.2406 3.09078 12.3359ZM7.23565 13.7509L10.3961 16.8614C15.6825 15.0922 18.4064 11.8065 19.7072 8.67636L15.4518 4.48829C12.3183 5.81206 9.03176 8.54364 7.23565 13.7509ZM16.5378 3.88963C18.1816 3.3575 19.7284 3.18565 20.935 3.21838C20.9741 4.4131 20.8174 5.95301 20.2994 7.59177C20.2789 7.65661 20.2579 7.7216 20.2362 7.78674C20.8048 6.07532 20.9756 4.46043 20.935 3.21838C19.6806 3.18435 18.0588 3.37122 16.3422 3.95433C16.4075 3.93215 16.4728 3.91067 16.5378 3.88963ZM20.7543 3.39711C20.7725 4.52401 20.6161 5.94002 20.1514 7.44609L16.6845 4.03409C18.1955 3.556 19.6176 3.38571 20.7543 3.39711ZM13.2482 17.0696L13.247 17.0631C13.9384 16.7291 14.5789 16.3671 15.1716 15.9821C15.343 16.8062 15.0891 18.4991 12.407 20.5664C12.6595 19.9204 12.8971 19.2488 13.0586 18.6598C13.1651 18.2709 13.2458 17.8923 13.2688 17.5691C13.2802 17.4082 13.2794 17.2356 13.2482 17.0696ZM13.031 16.964C13.7877 16.606 14.4831 16.2145 15.1217 15.7963C15.1749 15.7614 15.2278 15.7263 15.2803 15.6911C15.3011 15.7468 15.3201 15.8077 15.3366 15.8735C15.4317 16.2543 15.4407 16.8014 15.2007 17.4715C15.4823 16.6853 15.4212 16.0686 15.2803 15.6911C14.5986 16.149 13.8508 16.5761 13.031 16.964C13.031 16.964 13.031 16.9639 13.031 16.964Z" fill="#23262B"/>
</g>
</g>
</svg>
