<svg width="24" height="25" viewBox="0 0 24 25" fill="none" xmlns="http://www.w3.org/2000/svg">
<g id="BetR Icons">
<g id="Union">
<path fill-rule="evenodd" clip-rule="evenodd" d="M4.6697 5.44869C4.64152 6.07255 4.81037 6.68603 5.14828 7.21348H2.7563C2.33861 7.21348 2 7.55206 2 7.96972C2 8.38738 2.33861 8.72596 2.7563 8.72596H21.2437C21.6614 8.72596 22 8.38738 22 7.96972C22 7.55206 21.6614 7.21348 21.2437 7.21348H19.567C19.9049 6.68603 20.0737 6.07255 20.0456 5.44869C20.0819 4.63315 19.7817 3.83551 19.2073 3.22457C18.6231 2.60307 17.8026 2.22521 16.9248 2.17335C16.9082 2.17237 16.8915 2.17188 16.8749 2.17188C14.6688 2.17188 13.2768 3.76217 12.4952 5.07883C12.4477 5.15889 12.4018 5.23886 12.3576 5.31846C12.3134 5.23886 12.2676 5.15889 12.2201 5.07883C11.4384 3.76217 10.0465 2.17188 7.84038 2.17188C7.82373 2.17188 7.80709 2.17237 7.79048 2.17335C6.91265 2.22521 6.09213 2.60307 5.50795 3.22457C4.93358 3.83551 4.63336 4.63315 4.6697 5.44869ZM18.0118 6.66908C17.7132 6.98676 17.2956 7.18183 16.8478 7.21348H13.2195C13.3783 6.80351 13.5997 6.30887 13.8905 5.819C14.6006 4.62284 15.5711 3.69671 16.8492 3.68448C17.2964 3.71686 17.7132 3.91206 18.0113 4.22927C18.315 4.55226 18.4712 4.97562 18.4459 5.40697C18.4442 5.43506 18.4442 5.46322 18.4459 5.4913C18.4715 5.92264 18.3154 6.3461 18.0118 6.66908ZM10.8247 5.819C11.1155 6.30887 11.3369 6.80351 11.4957 7.21348H7.86742C7.41962 7.18183 7.00208 6.98676 6.70346 6.66908C6.39985 6.3461 6.24377 5.92264 6.26939 5.4913C6.27106 5.46322 6.27107 5.43506 6.26942 5.40697C6.24407 4.97562 6.40025 4.55226 6.70394 4.22927C7.0021 3.91206 7.41888 3.71686 7.86602 3.68448C9.14415 3.69671 10.1147 4.62284 10.8247 5.819Z" fill="#23262B"/>
<path d="M4.13333 10.5762C4.47756 10.5762 4.771 10.7817 4.88385 11.07C4.91585 11.1518 4.93333 11.2402 4.93333 11.3324V19.7351C4.93333 19.9802 5.03632 20.2153 5.21978 20.3888C5.40318 20.562 5.65187 20.6594 5.91111 20.6594H11.3333V15.3136V11.3324C11.3333 10.9148 11.6915 10.5762 12.1333 10.5762C12.5752 10.5762 12.9333 10.9148 12.9333 11.3324V16.3663V20.6594H18.3556C18.6147 20.6594 18.8634 20.5621 19.0469 20.3888C19.2302 20.2153 19.3333 19.9801 19.3333 19.7351V11.3324C19.3333 10.9148 19.6915 10.5762 20.1333 10.5762C20.5752 10.5762 20.9333 10.9148 20.9333 11.3324V19.7351C20.9333 20.3815 20.6617 21.0011 20.1785 21.4581C19.6951 21.9149 19.0393 22.1719 18.3556 22.1719H5.91111C5.22741 22.1719 4.57178 21.9151 4.0884 21.4582C3.60508 21.0013 3.33333 20.3814 3.33333 19.7351V11.3324C3.33333 10.9148 3.69151 10.5762 4.13333 10.5762Z" fill="#23262B"/>
</g>
</g>
</svg>
