<svg width="24" height="25" viewBox="0 0 24 25" fill="none" xmlns="http://www.w3.org/2000/svg">
<g id="BetR Icons">
<path id="Mask" d="M16.8825 12.2826C16.8589 12.4721 16.7744 12.6554 16.629 12.8009C16.6218 12.808 16.6146 12.815 16.6072 12.8219L9.51761 19.9115C9.17046 20.2587 8.60762 20.2587 8.26046 19.9115C7.91331 19.5644 7.91331 19.0015 8.26046 18.6544L14.7429 12.1719L8.26036 5.68938C7.91321 5.34223 7.91321 4.77939 8.26036 4.43224C8.60751 4.08509 9.17036 4.08509 9.51751 4.43224L16.6044 11.5191C16.6127 11.5268 16.621 11.5348 16.6291 11.5429C16.831 11.7448 16.9155 12.0197 16.8825 12.2826Z" fill="white"/>
</g>
</svg>
