<svg width="33" height="24" viewBox="0 0 33 24" fill="none" xmlns="http://www.w3.org/2000/svg">
<path fill-rule="evenodd" clip-rule="evenodd" d="M16.4127 1.99251C16.5775 2.11604 17.1407 2.55593 17.2418 2.63301C17.8228 3.07531 18.2771 3.36138 18.8055 3.59075C19.3222 3.81499 19.7924 3.98983 20.2885 4.1497C20.5412 4.23113 21.2916 4.45501 21.4062 4.49153C22.1575 4.73055 22.6146 4.97242 23.059 5.43546C23.3741 5.76376 23.5691 6.10965 23.841 6.72352C23.9757 7.03099 24.0384 7.17235 24.1077 7.31669C24.4178 7.96275 24.7298 8.33894 25.2487 8.60921C26.3545 9.1852 28.5029 10.5838 31.7277 12.8233C32.1605 13.1239 32.2068 13.7682 31.8216 14.1324C30.5146 15.3686 29.2765 16.0133 28.088 16.0133H27.4955C26.5235 16.5623 25.6606 16.8458 24.8913 16.8458C23.6106 16.8458 22.5725 16.5575 20.8708 15.8724C18.672 14.9872 18.0323 14.8327 17.1526 15.1383C15.0006 15.8854 12.728 18.5157 10.4136 23.0629C10.2061 23.4706 9.71976 23.6247 9.32942 23.4062C6.69905 21.9345 4.68319 20.2583 3.28882 18.3702C1.87356 16.4536 1.08097 14.2939 0.918993 11.9099C0.899163 11.6181 1.02782 11.337 1.25785 11.1692L7.7182 6.45852L5.55514 6.00793C4.89915 5.87117 4.68508 5.00556 5.19603 4.55578C7.0819 2.89562 9.32346 1.72814 11.9112 1.05424C13.7616 0.572385 14.962 0.905006 16.4127 1.99251ZM3.64538 11.4614L2.55431 12.2561C2.75888 14.1278 3.4239 15.8225 4.55565 17.3551C5.67995 18.8776 7.28972 20.2732 9.39008 21.5361C9.71521 20.9251 10.0409 20.3476 10.3674 19.8038C8.74035 18.9731 7.34202 17.811 6.17599 16.3265C5.07646 14.9266 4.233 13.3033 3.64538 11.4614ZM12.2988 2.66941C10.562 3.12171 9.00738 3.81261 7.63103 4.74246L9.8643 5.20779C10.5539 5.35145 10.742 6.28591 10.1658 6.70607L5.01805 10.4603C5.54915 12.3139 6.34756 13.9158 7.413 15.2722C8.44877 16.5909 9.68626 17.6135 11.1316 18.345L11.5089 18.5233L11.2599 18.4043C13.0189 15.8172 14.8056 14.1981 16.6472 13.5587C18.0304 13.0785 18.8651 13.28 21.447 14.3195C22.9768 14.9355 23.8609 15.1809 24.8913 15.1809C25.3913 15.1809 26.0651 14.947 26.8944 14.4569C27.0147 14.3859 27.1505 14.3485 27.2888 14.3485H28.088C28.6182 14.3485 29.2374 14.1006 29.9377 13.5838C27.268 11.7462 25.4585 10.58 24.5339 10.0984C23.6624 9.64445 23.1297 9.00204 22.6782 8.06122C22.5963 7.89051 22.5216 7.72264 22.3899 7.42112C22.1931 6.97688 22.0716 6.76139 21.9288 6.61273C21.7031 6.37763 21.4627 6.25034 20.9392 6.08368C20.8437 6.05338 20.0894 5.82829 19.8159 5.74023C19.2738 5.56545 18.7565 5.3731 18.1909 5.12758C17.5275 4.83972 16.9729 4.49031 16.2988 3.9772C16.1849 3.89049 15.6282 3.4556 15.4791 3.34384C14.3827 2.52189 13.6475 2.31821 12.2988 2.66941ZM17.6991 6.85649L20.8956 7.68895V9.35375C19.8648 9.19656 19.0656 8.91912 18.4981 8.52142C18.0185 8.18513 17.7521 7.63025 17.6991 6.85649Z" fill="#093AD3"/>
</svg>
