<svg width="179" height="62" viewBox="0 0 179 62" fill="none" xmlns="http://www.w3.org/2000/svg">
<rect width="179" height="62" fill="#E2E2E2"/>
<g id="My Promotions" clip-path="url(#clip0_25016_192899)">
<rect width="375" height="812" transform="translate(-10 -55)" fill="white"/>
<g id="Frame 223487181">
<rect width="375" height="84.1713" transform="translate(-10 -11)" fill="#093AD3"/>
<g id="Header">
<g id="Group 4315">
<g id="Group 4313">
<g id="Group 4316">
<rect id="Rectangle 14502" x="48" y="8.82129" width="17" height="23" fill="#23262B"/>
<path id="Subtract" fill-rule="evenodd" clip-rule="evenodd" d="M65.5488 3.35689C64.3243 1.14787 61.5409 0.349742 59.3319 1.57422L38.6948 13.0136C36.4858 14.238 35.6876 17.0214 36.9121 19.2305L43.892 31.8225H52.6272L53.1724 29.9211C49.5638 28.361 48.5242 25.2704 48.9042 23.0293L52.4673 23.2215C52.1676 24.8774 52.8751 26.6839 55.3557 27.3952C57.1082 27.8977 58.3599 27.3996 58.6822 26.2755C58.9313 25.4068 58.4477 24.5493 57.1802 23.8817L54.8461 22.6595C52.11 21.2113 50.8016 18.9561 51.5049 16.5035C52.2814 13.7954 55.0638 12.4367 58.0733 12.8296L58.8571 10.096L61.6073 10.8846L60.8015 13.6949C63.7483 15.1205 64.5104 17.5509 64.3971 19.3708L60.8243 19.314C60.9189 18.3735 60.6428 16.6907 58.4318 16.0567C56.7062 15.5619 55.4915 16.2366 55.1911 17.284C54.964 18.076 55.3668 18.9103 56.5607 19.5292L58.8605 20.7692C62.0526 22.4587 63.0401 24.8155 62.3808 27.1148C61.7068 29.4652 59.3046 31.1265 55.9299 30.6841L55.6035 31.8225H72.2981L75.2055 30.2109C77.4145 28.9864 78.2126 26.203 76.9881 23.994L65.5488 3.35689Z" fill="#FFB107"/>
</g>
<path id="MY" d="M1 31.8222V32.8222H2H9.06913H10.0691V31.8222V21.5773L11.9279 25.487L12.1992 26.0576H12.8311H13.6579H14.2927L14.5628 25.4831L16.3785 21.6218V31.8222V32.8222H17.3785H24.4476H25.4476V31.8222V6.02029L31.1148 20.4097V31.8222V32.8222H32.1148H39.2253H40.2253V31.8222V20.4118L47.0993 3.16616L47.6455 1.7959H46.1704H39.556H38.8713L38.6237 2.43431L35.8407 9.6103L33.0899 2.43781L32.8437 1.7959H32.1562H25.4476H25.2524H24.4476H23.7838H18.3706H17.721L17.4569 2.38944L13.3986 11.5122L9.23488 2.38101L8.96808 1.7959H8.32501H2H1V2.7959V31.8222Z" fill="white" stroke="#093AD3" stroke-width="2"/>
</g>
<g id="PROMOTIONS">
<path d="M2 60.8035V34.7325H11.2671C13.416 34.7325 15.2353 35.4935 16.7248 37.0155C18.2388 38.513 18.9958 40.3419 18.9958 42.5022V44.9326C18.9958 47.0929 18.2388 48.934 16.7248 50.4561C15.2353 51.9536 13.416 52.7023 11.2671 52.7023H8.30018V60.8035H2ZM8.30018 47.0683H10.9008C11.3892 47.0683 11.8043 46.8965 12.1462 46.5528C12.5125 46.1846 12.6956 45.7427 12.6956 45.2272V42.2076C12.6956 41.6921 12.5125 41.2625 12.1462 40.9188C11.8043 40.5506 11.3892 40.3665 10.9008 40.3665H8.30018V47.0683Z" fill="white"/>
<path d="M31.7504 60.8035L28.5637 52.2973H26.2927V60.8035H19.9925V34.7325H29.4428C31.5673 34.7325 33.3743 35.4935 34.8639 37.0155C36.3779 38.513 37.1349 40.3296 37.1349 42.4654V44.5643C37.1349 46.8719 36.2558 48.8113 34.4976 50.3824L38.6367 60.8035H31.7504ZM26.2927 46.7737H28.93C29.4184 46.7737 29.8335 46.6019 30.1754 46.2582C30.5172 45.89 30.6882 45.4604 30.6882 44.9694V42.1708C30.6882 41.6798 30.5172 41.2625 30.1754 40.9188C29.8335 40.5506 29.4184 40.3665 28.93 40.3665H26.2927V46.7737Z" fill="white"/>
<path d="M38.4381 42.1708C38.4381 40.0105 39.1951 38.1693 40.7091 36.6473C42.2231 35.1253 44.0545 34.3643 46.2034 34.3643H48.1447C50.2936 34.3643 52.1251 35.1253 53.6391 36.6473C55.1531 38.1693 55.9101 40.0105 55.9101 42.1708V53.3651C55.9101 55.5254 55.1531 57.3666 53.6391 58.8886C52.1251 60.4107 50.2936 61.1717 48.1447 61.1717H46.2034C44.0545 61.1717 42.2231 60.4107 40.7091 58.8886C39.1951 57.3666 38.4381 55.5254 38.4381 53.3651V42.1708ZM44.7382 42.3181V53.2178C44.7382 53.807 44.9458 54.3103 45.3609 54.7276C45.7761 55.1204 46.2644 55.3168 46.8261 55.3168H47.522C48.0837 55.3168 48.5721 55.1204 48.9872 54.7276C49.4023 54.3103 49.6099 53.807 49.6099 53.2178V42.3181C49.6099 41.7289 49.4023 41.238 48.9872 40.8452C48.5721 40.4278 48.0837 40.2192 47.522 40.2192H46.8261C46.2644 40.2192 45.7761 40.4278 45.3609 40.8452C44.9458 41.238 44.7382 41.7289 44.7382 42.3181Z" fill="white"/>
<path d="M57.6588 60.8035V34.7325H63.263L67.7684 44.7485L72.1639 34.7325H77.5483V60.8035H71.2848V47.6207L67.9882 54.7276H67.2556L63.9224 47.6207V60.8035H57.6588Z" fill="white"/>
<path d="M79.3237 42.1708C79.3237 40.0105 80.0807 38.1693 81.5947 36.6473C83.1087 35.1253 84.9401 34.3643 87.089 34.3643H89.0303C91.1792 34.3643 93.0107 35.1253 94.5247 36.6473C96.0387 38.1693 96.7957 40.0105 96.7957 42.1708V53.3651C96.7957 55.5254 96.0387 57.3666 94.5247 58.8886C93.0107 60.4107 91.1792 61.1717 89.0303 61.1717H87.089C84.9401 61.1717 83.1087 60.4107 81.5947 58.8886C80.0807 57.3666 79.3237 55.5254 79.3237 53.3651V42.1708ZM85.6239 42.3181V53.2178C85.6239 53.807 85.8314 54.3103 86.2465 54.7276C86.6617 55.1204 87.1501 55.3168 87.7117 55.3168H88.4077C88.9693 55.3168 89.4577 55.1204 89.8728 54.7276C90.2879 54.3103 90.4955 53.807 90.4955 53.2178V42.3181C90.4955 41.7289 90.2879 41.238 89.8728 40.8452C89.4577 40.4278 88.9693 40.2192 88.4077 40.2192H87.7117C87.1501 40.2192 86.6617 40.4278 86.2465 40.8452C85.8314 41.238 85.6239 41.7289 85.6239 42.3181Z" fill="white"/>
<path d="M102.358 60.8035V40.8452H97.1202V34.7325H113.896V40.8452H108.658V60.8035H102.358Z" fill="white"/>
<path d="M114.927 60.8035V34.7325H121.227V60.8035H114.927Z" fill="white"/>
<path d="M122.964 42.1708C122.964 40.0105 123.721 38.1693 125.235 36.6473C126.749 35.1253 128.58 34.3643 130.729 34.3643H132.67C134.819 34.3643 136.651 35.1253 138.165 36.6473C139.679 38.1693 140.436 40.0105 140.436 42.1708V53.3651C140.436 55.5254 139.679 57.3666 138.165 58.8886C136.651 60.4107 134.819 61.1717 132.67 61.1717H130.729C128.58 61.1717 126.749 60.4107 125.235 58.8886C123.721 57.3666 122.964 55.5254 122.964 53.3651V42.1708ZM129.264 42.3181V53.2178C129.264 53.807 129.471 54.3103 129.886 54.7276C130.302 55.1204 130.79 55.3168 131.352 55.3168H132.048C132.609 55.3168 133.098 55.1204 133.513 54.7276C133.928 54.3103 134.135 53.807 134.135 53.2178V42.3181C134.135 41.7289 133.928 41.238 133.513 40.8452C133.098 40.4278 132.609 40.2192 132.048 40.2192H131.352C130.79 40.2192 130.302 40.4278 129.886 40.8452C129.471 41.238 129.264 41.7289 129.264 42.3181Z" fill="white"/>
<path d="M142.184 60.8035V34.7325H147.496L153.429 46.7369V34.7325H159.363V60.8035H154.492L148.082 48.0257V60.8035H142.184Z" fill="white"/>
<path d="M160.984 53.7334V52.2973H167.138V53.5861C167.138 54.1261 167.321 54.5926 167.687 54.9854C168.054 55.3536 168.493 55.5377 169.006 55.5377H169.885C170.471 55.5377 170.935 55.3413 171.277 54.9485C171.643 54.5312 171.826 54.028 171.826 53.4388V52.9233C171.826 52.2604 171.607 51.7081 171.167 51.2662C170.752 50.8243 170.129 50.6034 169.299 50.6034H168.859C166.613 50.6034 164.769 49.8669 163.328 48.394C161.888 46.921 161.167 45.1781 161.167 43.165V41.6921C161.167 39.6791 161.9 37.9607 163.365 36.5368C164.855 35.0885 166.625 34.3643 168.676 34.3643H170.874C172.876 34.3643 174.525 35.0885 175.819 36.5368C177.138 37.9607 177.797 39.7159 177.797 41.8026V43.3492H171.79V41.9499C171.79 41.4098 171.607 40.9556 171.24 40.5874C170.898 40.1946 170.471 39.9982 169.958 39.9982H169.372C168.835 39.9982 168.371 40.1946 167.98 40.5874C167.614 40.9556 167.431 41.4098 167.431 41.9499V42.6127C167.431 43.3492 167.638 43.9383 168.054 44.3802C168.493 44.8221 169.116 45.043 169.922 45.043H170.434C172.95 45.043 174.867 45.7304 176.185 47.1052C177.504 48.4799 178.163 50.2474 178.163 52.4077V53.7334C178.163 55.7955 177.467 57.5507 176.075 58.9991C174.683 60.4475 172.962 61.1717 170.911 61.1717H168.273C166.222 61.1717 164.488 60.4475 163.072 58.9991C161.68 57.5507 160.984 55.7955 160.984 53.7334Z" fill="white"/>
</g>
</g>
</g>
</g>
</g>
<defs>
<clipPath id="clip0_25016_192899">
<rect width="375" height="812" fill="white" transform="translate(-10 -55)"/>
</clipPath>
</defs>
</svg>
