<svg width="29" height="32" viewBox="0 0 29 32" fill="none" xmlns="http://www.w3.org/2000/svg">
<path fill-rule="evenodd" clip-rule="evenodd" d="M5.21899 7.5274L5.36826 7.56692L13.4165 10.4661C14.0766 10.7039 14.8016 10.6682 15.4304 10.3745L15.6614 10.2524L18.6031 8.5039C19.017 8.25791 19.5538 8.39079 19.8021 8.80089C20.0228 9.16528 19.9413 9.62603 19.6298 9.89666L19.5024 9.9886L16.5607 11.7371C15.5256 12.3523 14.2843 12.5136 13.1312 12.1927L12.8192 12.0933L5.63507 9.50539C5.4219 10.4538 5.39182 11.6338 5.55513 13.0435C5.75815 14.7958 6.3674 16.183 7.38022 17.2347C8.9815 15.5145 11.2687 14.4408 13.8091 14.4408C14.4417 14.4408 15.0587 14.5073 15.653 14.6337L15.6374 14.6305L27.4677 10.1738L27.4713 10.1724L27.4816 10.1686L27.5074 10.1592C27.5463 10.1459 27.5863 10.1353 27.6267 10.1277C27.6545 10.1222 27.6825 10.1182 27.7107 10.1156L27.7392 10.1135L27.7676 10.1124C27.8009 10.1112 27.835 10.1122 27.8685 10.1151C27.8862 10.1168 27.9042 10.1189 27.9222 10.1215C27.945 10.125 27.9673 10.1291 27.9893 10.1343C28.0184 10.1408 28.0476 10.149 28.0763 10.1589C28.0903 10.1638 28.1048 10.1691 28.1189 10.1748L28.2153 10.2211L28.3321 10.297L28.3359 10.3C28.3469 10.3085 28.3579 10.3174 28.3685 10.3268C28.5199 10.4586 28.6148 10.6309 28.6504 10.8137C28.6661 10.8939 28.67 10.9745 28.663 11.0535L28.6573 11.1013C28.6538 11.1257 28.6492 11.1496 28.6437 11.1731C28.6252 11.2531 28.5948 11.3314 28.5523 11.4053L28.4794 11.5127L21.897 19.8125L21.8598 19.7239C22.3033 20.7608 22.5484 21.9012 22.5484 23.0981C22.5484 27.8794 18.6357 31.7555 13.8091 31.7555C8.98242 31.7555 5.06961 27.8794 5.06961 23.0981C5.06961 22.1024 5.23928 21.146 5.55155 20.2557L5.54134 20.285L1.51782 21.8015C1.1168 21.9526 0.673395 21.7921 0.459309 21.4405L0.390315 21.3C0.237816 20.9028 0.399951 20.4636 0.754724 20.2515L0.896553 20.1831L5.9681 18.2727C4.76953 16.9576 4.05388 15.2714 3.81864 13.2408C3.57515 11.139 3.71383 9.41371 4.25763 8.06035C4.41293 7.67384 4.81887 7.45822 5.21899 7.5274ZM13.8091 16.1722C9.94778 16.1722 6.81744 19.273 6.81744 23.0981C6.81744 26.9233 9.94778 30.0241 13.8091 30.0241C17.6704 30.0241 20.8006 26.9233 20.8006 23.0981C20.8006 19.273 17.6704 16.1722 13.8091 16.1722ZM13.8091 17.9036C16.705 17.9036 19.0528 20.2293 19.0528 23.0981C19.0528 25.967 16.705 28.2925 13.8091 28.2925C10.913 28.2925 8.56542 25.967 8.56542 23.0981C8.56542 20.2293 10.913 17.9036 13.8091 17.9036ZM13.8091 19.6352C11.8784 19.6352 10.3133 21.1856 10.3133 23.0981C10.3133 25.0107 11.8784 26.5611 13.8091 26.5611C15.7397 26.5611 17.3048 25.0107 17.3048 23.0981C17.3048 21.1856 15.7397 19.6352 13.8091 19.6352ZM25.1582 12.8945L18.0985 15.5535L18.0563 15.53C19.1819 16.1512 20.1544 17.0116 20.9039 18.0419L20.9861 18.1567L25.1582 12.8945ZM8.56542 0.588867C10.496 0.588867 12.0611 2.13929 12.0611 4.05183C12.0611 5.96438 10.496 7.51479 8.56542 7.51479C6.6347 7.51479 5.06961 5.96438 5.06961 4.05183C5.06961 2.13929 6.6347 0.588867 8.56542 0.588867ZM8.56542 2.32034C7.60006 2.32034 6.81744 3.09556 6.81744 4.05183C6.81744 5.00811 7.60006 5.78331 8.56542 5.78331C9.53078 5.78331 10.3133 5.00811 10.3133 4.05183C10.3133 3.09556 9.53078 2.32034 8.56542 2.32034Z" fill="#093AD3"/>
</svg>
