<svg width="33" height="32" viewBox="0 0 33 32" fill="none" xmlns="http://www.w3.org/2000/svg">
<path fill-rule="evenodd" clip-rule="evenodd" d="M18.7104 0.684875C19.3547 0.353512 20.0878 0.929342 19.9465 1.6559L19.1989 5.50018C21.0073 6.6566 22.319 7.61744 23.1454 8.39627C23.4362 8.67033 23.7975 9.22087 24.3941 10.2233L24.497 10.3968C24.6166 10.5992 25.0853 11.4002 25.1878 11.5729C25.3743 11.8872 25.5061 12.0954 25.5178 12.1087C27.1761 13.9873 29.2955 16.4849 31.877 19.6026C32.066 19.8308 32.1306 20.1415 32.049 20.4292C31.7992 21.3099 31.3315 22.1849 30.6535 23.0565C29.9911 23.9081 29.1911 24.6754 28.256 25.358C28.0309 25.5223 27.7431 25.5664 27.4812 25.4766L24.884 24.5862C24.64 24.5026 24.4449 24.3118 24.3513 24.0655C23.8497 22.745 23.2068 22.0838 22.4182 21.9486C22.1947 21.9103 22.0165 21.8802 21.8423 21.853L21.5791 21.8136C21.1283 21.7492 20.5751 21.6854 19.2777 21.5375C18.5642 21.4562 17.9232 21.3619 17.3493 21.2456C17.339 21.2978 17.3241 21.3497 17.3041 21.401C16.2295 24.1642 16.2295 27.2133 17.3216 30.5832C17.5252 31.2111 17.015 31.8398 16.3779 31.7462C12.204 31.133 8.89479 29.8953 6.45773 28.0155C5.88303 27.5722 5.338 27.0984 4.82204 26.5984C3.66994 25.482 2.71133 24.2866 1.9348 23.0894C1.46448 22.3643 1.15606 21.7922 0.999215 21.449C0.876485 21.1804 0.891917 20.8666 1.04037 20.6122C4.49688 14.6872 8.52546 9.63219 13.1259 5.45051C13.4892 4.02568 14.1928 3.00803 15.2474 2.46569L18.7104 0.684875ZM17.9015 3.09187L16.0217 4.0585C15.4119 4.37213 14.9831 5.03357 14.7484 6.12552C14.7086 6.31093 14.6121 6.47838 14.4732 6.60343C10.0359 10.5967 6.13665 15.4288 2.77526 21.1029C2.91944 21.3674 3.11883 21.7059 3.37519 22.1012C4.08241 23.1915 4.9583 24.2837 6.00942 25.3023C6.47909 25.7574 6.9747 26.1882 7.49662 26.5908C9.42061 28.0749 12.0138 29.1346 15.2814 29.7577C14.4844 26.5423 14.6152 23.538 15.6855 20.7679C13.7565 19.9847 13.0374 18.5689 13.0374 15.7278C13.0374 15.2361 13.425 14.8374 13.9031 14.8374C14.3812 14.8374 14.7688 15.2361 14.7688 15.7278C14.7688 18.7705 15.5535 19.3213 19.4684 19.7676C20.7909 19.9183 21.3569 19.9835 21.8247 20.0506L22.0988 20.0917C22.2808 20.1202 22.4681 20.1517 22.7028 20.192C24.0644 20.4254 25.0994 21.405 25.8043 23.0246L27.6025 23.6411C28.2587 23.1228 28.8245 22.5571 29.3015 21.944C29.723 21.402 30.0336 20.8766 30.2368 20.3687C27.8116 17.4448 25.811 15.0901 24.2359 13.3057C24.1147 13.1685 23.978 12.9525 23.7099 12.5007C23.6038 12.322 23.1341 11.5192 23.0175 11.322L22.9173 11.153C22.4374 10.3467 22.0895 9.81654 21.9756 9.70921C21.1732 8.95299 19.7701 7.94182 17.7808 6.6934C17.4706 6.49866 17.3116 6.1253 17.3829 5.7587L17.9015 3.09187ZM18.2318 10.3854L21.6948 11.2758V13.0566C20.578 12.8884 19.7123 12.5916 19.0975 12.1662C18.5779 11.8065 18.2893 11.2129 18.2318 10.3854Z" fill="#093AD3"/>
</svg>
