<svg width="9" height="24" viewBox="0 0 9 24" fill="none" xmlns="http://www.w3.org/2000/svg">
<path fill-rule="evenodd" clip-rule="evenodd" d="M12.1947 0.838867H21.0898C21.9086 0.838867 22.5723 1.53242 22.5723 2.38797V6.31225L23.3146 5.20458C23.7842 4.50376 24.7086 4.33344 25.3793 4.82416L31.4514 9.2668C32.122 9.75752 32.285 10.7235 31.8154 11.4243L24.1624 22.8448C23.6928 23.5457 22.7683 23.716 22.0977 23.2253L16.9078 19.4281H16.0928L10.903 23.2253C10.2323 23.716 9.30789 23.5457 8.83826 22.8448L1.18523 11.4243C0.715602 10.7235 0.878601 9.75752 1.5493 9.2668L7.62133 4.82416C8.29203 4.33344 9.21644 4.50376 9.68607 5.20458L10.7122 6.73579V9.43771L8.47144 6.09391L2.39941 10.5366L10.0524 21.9571L13.509 19.4281H12.1947C11.3759 19.4281 10.7122 18.7345 10.7122 17.879V2.38797C10.7122 1.53242 11.3759 0.838867 12.1947 0.838867ZM19.4917 19.4281L22.9482 21.9571L30.6012 10.5366L24.5292 6.09391L22.5723 9.01417V17.879C22.5723 18.7345 21.9086 19.4281 21.0898 19.4281H19.4917ZM12.1947 2.38797V17.879H21.0898V2.38797H12.1947Z" fill="#093AD3"/>
</svg>
