<svg width="24" height="25" viewBox="0 0 24 25" fill="none" xmlns="http://www.w3.org/2000/svg">
<path fill-rule="evenodd" clip-rule="evenodd" d="M12 2.39384C11.562 2.39384 11.126 2.56045 10.7925 2.89401L2.72214 10.9644C2.38857 11.2979 2.22197 11.7339 2.22197 12.1719C2.22197 12.6099 2.38857 13.0458 2.72214 13.3794L10.7925 21.4497C11.126 21.7833 11.562 21.9499 12 21.9499C12.438 21.9499 12.874 21.7833 13.2075 21.4497L21.2779 13.3794C21.6114 13.0458 21.778 12.6099 21.778 12.1719C21.778 11.7339 21.6114 11.2979 21.2779 10.9644L13.2075 2.89401C12.874 2.56045 12.438 2.39384 12 2.39384ZM9.92842 2.02995C10.5003 1.45802 11.2512 1.17188 12 1.17188C12.7488 1.17188 13.4996 1.45802 14.0716 2.02995L22.1419 10.1003C22.7139 10.6722 23 11.4231 23 12.1719C23 12.9207 22.7139 13.6715 22.1419 14.2435L14.0716 22.3138C13.4996 22.8857 12.7488 23.1719 12 23.1719C11.2512 23.1719 10.5003 22.8857 9.92842 22.3138L1.85808 14.2435C1.28615 13.6715 1 12.9207 1 12.1719C1 11.4231 1.28615 10.6722 1.85808 10.1003L9.92842 2.02995Z" fill="#23262B"/>
<path fill-rule="evenodd" clip-rule="evenodd" d="M12.6116 6.05957L12.6104 11.0929L16.9864 8.56821L17.5974 9.62647L13.2251 12.1499L17.0716 14.3688L17.6008 14.6741L16.9902 15.7326L16.461 15.4272L12.6104 13.2056L12.6116 18.2792H11.3896L11.3885 13.2093L7.01483 15.7363L6.40384 14.6781L10.7799 12.1499L6.92962 9.92838L6.40039 9.62305L7.01104 8.5646L7.54026 8.86993L11.3885 11.0892L11.3896 6.05957H12.6116Z" fill="#23262B"/>
</svg>
