<svg width="30" height="30" viewBox="0 0 30 30" fill="none" xmlns="http://www.w3.org/2000/svg">
<g id="BetR Icons">
<path id="Combined-Shape" fill-rule="evenodd" clip-rule="evenodd" d="M16.95 1.33471C17.5186 1.04233 18.1654 1.55042 18.0407 2.1915L17.3811 5.58351C18.9767 6.60388 20.1341 7.45168 20.8633 8.13888C21.1199 8.3807 21.4387 8.86647 21.9651 9.75101L22.0559 9.90406C22.1614 10.0826 22.575 10.7894 22.6654 10.9418C22.83 11.2191 22.9463 11.4029 22.9566 11.4146C24.4198 13.0722 26.2898 15.2759 28.5677 18.0268C28.7344 18.2281 28.7914 18.5023 28.7194 18.7562C28.499 19.5333 28.0863 20.3053 27.4881 21.0743C26.9036 21.8258 26.1978 22.5028 25.3727 23.1051C25.1741 23.2501 24.9201 23.289 24.689 23.2098L22.3973 22.4241C22.1821 22.3503 22.0099 22.182 21.9274 21.9647C21.4848 20.7995 20.9175 20.2161 20.2216 20.0968C20.0245 20.063 19.8672 20.0365 19.7135 20.0125L19.4812 19.9777C19.0835 19.9209 18.5954 19.8646 17.4506 19.7341C16.8211 19.6624 16.2555 19.5791 15.7491 19.4765C15.74 19.5226 15.7268 19.5684 15.7092 19.6136C14.761 22.0518 14.761 24.7422 15.7247 27.7156C15.9043 28.2697 15.4541 28.8244 14.892 28.7418C11.2091 28.2007 8.28923 27.1087 6.13889 25.4499C5.6318 25.0588 5.15089 24.6408 4.69563 24.1996C3.67907 23.2145 2.83324 22.1598 2.14807 21.1034C1.73308 20.4636 1.46094 19.9589 1.32255 19.656C1.21426 19.419 1.22787 19.1421 1.35886 18.9176C4.40872 13.6897 7.96336 9.2294 12.0226 5.53968C12.3431 4.28249 12.9639 3.38455 13.8945 2.90602L16.95 1.33471ZM16.2363 3.45853L14.5777 4.31144C14.0396 4.58818 13.6613 5.17179 13.4542 6.13528C13.419 6.29888 13.334 6.44663 13.2114 6.55696C9.29609 10.0804 5.85558 14.344 2.88965 19.3506C3.01686 19.584 3.1928 19.8827 3.419 20.2314C4.04302 21.1935 4.81586 22.1572 5.74332 23.056C6.15774 23.4576 6.59504 23.8377 7.05555 24.1929C8.75319 25.5024 11.0413 26.4374 13.9244 26.9872C13.2212 24.1501 13.3367 21.4992 14.2811 19.055C12.579 18.364 11.9444 17.1147 11.9444 14.6079C11.9444 14.174 12.2864 13.8222 12.7083 13.8222C13.1302 13.8222 13.4722 14.174 13.4722 14.6079C13.4722 17.2926 14.1646 17.7786 17.6189 18.1724C18.7858 18.3054 19.2852 18.3629 19.698 18.4221L19.9399 18.4584C20.1004 18.4835 20.2656 18.5114 20.4728 18.5469C21.6742 18.7528 22.5874 19.6172 23.2094 21.0462L24.7961 21.5902C25.375 21.1329 25.8743 20.6338 26.2951 20.0928C26.6671 19.6146 26.9411 19.1509 27.1204 18.7028C24.9805 16.1228 23.2153 14.0452 21.8255 12.4708C21.7186 12.3497 21.598 12.1591 21.3614 11.7604C21.2678 11.6028 20.8533 10.8944 20.7505 10.7204L20.662 10.5713C20.2386 9.85983 19.9316 9.39206 19.8311 9.29736C19.1232 8.63011 17.8851 7.7379 16.1299 6.63635C15.8561 6.46452 15.7158 6.13509 15.7787 5.81162L16.2363 3.45853ZM16.5278 9.89397L19.5833 10.6796V12.2509C18.5979 12.1025 17.8341 11.8406 17.2917 11.4653C16.8331 11.148 16.5785 10.6242 16.5278 9.89397Z" fill="white"/>
</g>
</svg>
