<svg width="12" height="13" viewBox="0 0 12 13" fill="none" xmlns="http://www.w3.org/2000/svg">
<path d="M11.6573 0.657328C11.211 0.211014 10.4874 0.211014 10.0411 0.657328L6.0011 4.69731L1.96002 0.656223C1.51371 0.20991 0.790091 0.209909 0.343777 0.656223C-0.102537 1.10254 -0.102536 1.82615 0.343777 2.27247L4.38486 6.31355L0.34362 10.3548C-0.102695 10.8011 -0.102694 11.5247 0.343619 11.971C0.789933 12.4173 1.51355 12.4173 1.95986 11.971L6.0011 7.9298L10.0412 11.9699C10.4876 12.4162 11.2112 12.4162 11.6575 11.9699C12.1038 11.5236 12.1038 10.8 11.6575 10.3537L7.61735 6.31355L11.6573 2.27357C12.1036 1.82726 12.1036 1.10364 11.6573 0.657328Z" fill="white"/>
</svg>
