<svg width="28" height="28" viewBox="0 0 28 28" fill="none" xmlns="http://www.w3.org/2000/svg">
<path fill-rule="evenodd" clip-rule="evenodd" d="M15.95 0.334713C16.5186 0.0423333 17.1654 0.550419 17.0407 1.1915L16.3811 4.58351C17.9767 5.60388 19.1341 6.45168 19.8633 7.13888C20.1199 7.3807 20.4387 7.86647 20.9651 8.75101L21.0559 8.90406C21.1614 9.08264 21.575 9.78939 21.6654 9.94176C21.83 10.2191 21.9463 10.4029 21.9566 10.4146C23.4198 12.0722 25.2898 14.2759 27.5677 17.0268C27.7344 17.2281 27.7914 17.5023 27.7194 17.7562C27.499 18.5333 27.0863 19.3053 26.4881 20.0743C25.9036 20.8258 25.1978 21.5028 24.3727 22.1051C24.1741 22.2501 23.9201 22.289 23.689 22.2098L21.3973 21.4241C21.1821 21.3503 21.0099 21.182 20.9274 20.9647C20.4848 19.7995 19.9175 19.2161 19.2216 19.0968C19.0245 19.063 18.8672 19.0365 18.7135 19.0125L18.4812 18.9777C18.0835 18.9209 17.5954 18.8646 16.4506 18.7341C15.8211 18.6624 15.2555 18.5791 14.7491 18.4765C14.74 18.5226 14.7268 18.5684 14.7092 18.6136C13.761 21.0518 13.761 23.7422 14.7247 26.7156C14.9043 27.2697 14.4541 27.8244 13.892 27.7418C10.2091 27.2007 7.28923 26.1087 5.13889 24.4499C4.6318 24.0588 4.15089 23.6408 3.69563 23.1996C2.67907 22.2145 1.83324 21.1598 1.14807 20.1034C0.733078 19.4636 0.460942 18.9589 0.322549 18.656C0.214258 18.419 0.227874 18.1421 0.35886 17.9176C3.40872 12.6897 6.96336 8.2294 11.0226 4.53968C11.3431 3.28249 11.9639 2.38455 12.8945 1.90602L15.95 0.334713ZM15.2363 2.45853L13.5777 3.31144C13.0396 3.58818 12.6613 4.17179 12.4542 5.13528C12.419 5.29888 12.334 5.44663 12.2114 5.55696C8.29609 9.08043 4.85558 13.344 1.88965 18.3506C2.01686 18.584 2.1928 18.8827 2.419 19.2314C3.04302 20.1935 3.81586 21.1572 4.74332 22.056C5.15774 22.4576 5.59504 22.8377 6.05555 23.1929C7.75319 24.5024 10.0413 25.4374 12.9244 25.9872C12.2212 23.1501 12.3367 20.4992 13.2811 18.055C11.579 17.364 10.9444 16.1147 10.9444 13.6079C10.9444 13.174 11.2864 12.8222 11.7083 12.8222C12.1302 12.8222 12.4722 13.174 12.4722 13.6079C12.4722 16.2926 13.1646 16.7786 16.6189 17.1724C17.7858 17.3054 18.2852 17.3629 18.698 17.4221L18.9399 17.4584C19.1004 17.4835 19.2656 17.5114 19.4728 17.5469C20.6742 17.7528 21.5874 18.6172 22.2094 20.0462L23.7961 20.5902C24.375 20.1329 24.8743 19.6338 25.2951 19.0928C25.6671 18.6146 25.9411 18.1509 26.1204 17.7028C23.9805 15.1228 22.2153 13.0452 20.8255 11.4708C20.7186 11.3497 20.598 11.1591 20.3614 10.7604C20.2678 10.6028 19.8533 9.89444 19.7505 9.72042L19.662 9.5713C19.2386 8.85983 18.9316 8.39206 18.8311 8.29736C18.1232 7.63011 16.8851 6.7379 15.1299 5.63635C14.8561 5.46452 14.7158 5.13509 14.7787 4.81162L15.2363 2.45853ZM15.5278 8.89397L18.5833 9.67963V11.2509C17.5979 11.1025 16.8341 10.8406 16.2917 10.4653C15.8331 10.148 15.5785 9.62418 15.5278 8.89397Z" fill="white"/>
</svg>
