<svg width="33" height="24" viewBox="0 0 33 24" fill="none" xmlns="http://www.w3.org/2000/svg">
<path d="M10.586 9.36852H10.8258L11.0655 9.21057C11.9446 9.21057 12.6638 9.4475 13.1433 10.0003C13.6228 10.5532 13.8625 11.264 13.8625 12.1328V12.6066C13.8625 13.3964 13.5429 14.1862 13.0634 14.739C12.504 15.2919 11.8647 15.6078 11.1454 15.6078H10.1865C9.38731 15.6078 8.74799 15.2919 8.2685 14.739C7.7091 14.1862 7.46936 13.4754 7.46936 12.6066V11.9748H9.30739V12.6066C9.30739 12.9225 9.46722 13.1595 9.62705 13.3964C9.78688 13.6333 10.0266 13.7123 10.3463 13.7123H10.7459C11.0655 13.7123 11.3053 13.6333 11.4651 13.3964C11.7048 13.1595 11.7847 12.8436 11.7847 12.5276V12.2907C11.7847 11.9748 11.7048 11.6589 11.4651 11.4219C11.3053 11.185 10.9856 11.106 10.586 11.106H10.3463C9.54714 11.106 8.90782 10.8691 8.34842 10.2373C7.78902 9.60546 7.54927 8.89466 7.54927 8.10488V7.55203C7.54927 6.76225 7.78902 6.05145 8.34842 5.4986C8.90782 4.94576 9.54714 4.62985 10.2664 4.62985H11.0655C11.7847 4.62985 12.4241 4.94576 12.9035 5.4986C13.383 6.05145 13.6228 6.76225 13.6228 7.63101V8.34181H11.7847V7.70999C11.7847 7.39408 11.7048 7.15714 11.4651 6.92021C11.2253 6.68327 10.9856 6.6043 10.7459 6.6043H10.4262C10.1065 6.6043 9.94671 6.68327 9.70697 6.92021C9.46722 7.15714 9.38731 7.39408 9.38731 7.70999V8.0259C9.38731 8.42079 9.46722 8.7367 9.70697 8.97363C9.86679 9.21057 10.1865 9.36852 10.586 9.36852Z" fill="#093AD3"/>
<path d="M18.8177 11.8957H17.619V10.0002H20.6557V12.6065C20.6557 13.4753 20.416 14.1861 19.8566 14.8179C19.2972 15.4497 18.6579 15.7656 17.8587 15.7656H17.1395C16.3403 15.7656 15.701 15.4497 15.1416 14.8179C14.5822 14.1861 14.3425 13.4753 14.3425 12.6065V7.86783C14.3425 6.99907 14.5822 6.28827 15.1416 5.65645C15.701 5.02462 16.3403 4.70871 17.1395 4.70871H17.8587C18.6579 4.70871 19.2972 5.02462 19.8566 5.65645C20.416 6.20929 20.6557 6.99907 20.6557 7.86783V8.65761H18.7378V7.9468C18.7378 7.63089 18.6579 7.31498 18.4181 7.07805C18.1784 6.84111 17.9386 6.68316 17.619 6.68316H17.2993C16.9797 6.68316 16.7399 6.84111 16.5002 7.07805C16.2604 7.31498 16.1805 7.63089 16.1805 7.9468V12.6855C16.1805 13.0014 16.2604 13.3173 16.5002 13.5542C16.7399 13.7912 16.9797 13.9491 17.2993 13.9491H17.6989C18.0185 13.9491 18.2583 13.7912 18.498 13.5542C18.7378 13.3173 18.8177 13.0014 18.8177 12.6855V11.8957Z" fill="#093AD3"/>
<path d="M25.2109 9.68436L23.2929 4.94568H21.5348V15.7657H23.3728V9.28947L24.9711 13.1594H25.2908L26.8891 9.28947V15.7657H28.7271V4.94568H27.0489L25.2109 9.68436Z" fill="#093AD3"/>
<path fill-rule="evenodd" clip-rule="evenodd" d="M8.18921 0.838867H28.4875V0.917845C30.4854 0.917845 32.0837 2.4974 32.0837 4.47185V16.1606C32.0837 18.135 30.4854 19.7146 28.4875 19.7146H28.4076V19.9515C28.4076 21.926 26.8093 23.5055 24.8114 23.5055H4.51315C2.51528 23.5055 0.916992 21.926 0.916992 19.9515V8.18381C0.916992 6.20937 2.51528 4.62981 4.51315 4.62981H4.59306V4.39287C4.59306 2.41843 6.19135 0.838867 8.18921 0.838867ZM24.8114 22.6368C26.3298 22.6368 27.6084 21.3731 27.6084 19.8725V19.5566H8.18921C6.19135 19.5566 4.59306 17.9771 4.59306 16.0026V5.34061H4.51315C2.99477 5.34061 1.71614 6.60426 1.71614 8.10484V19.8725C1.71614 21.3731 2.99477 22.6368 4.51315 22.6368H24.8114ZM28.5674 18.8458C30.0858 18.8458 31.3644 17.5822 31.3644 16.0816V4.39287C31.3644 2.89229 30.0858 1.62865 28.5674 1.62865H8.26913C6.75075 1.62865 5.47212 2.89229 5.47212 4.39287V16.0816C5.47212 17.5822 6.75075 18.8458 8.26913 18.8458H28.5674Z" fill="#093AD3"/>
</svg>
