<svg width="10" height="10" viewBox="0 0 10 10" fill="none" xmlns="http://www.w3.org/2000/svg">
<g clip-path="url(#clip0_25622_181423)">
<path d="M1.99048 1.51105H3.35922C3.54645 1.51105 3.69823 1.35926 3.69823 1.17203C3.69823 0.984792 3.54645 0.833008 3.35922 0.833008H1.2267C1.00927 0.833008 0.833008 1.00927 0.833008 1.22671V3.35925C0.833008 3.54649 0.98479 3.69827 1.17202 3.69827C1.35926 3.69827 1.51104 3.54649 1.51104 3.35925V1.9905L4.59974 5.07924C4.6387 5.11821 4.6606 5.17106 4.6606 5.22617V8.82732C4.6606 9.01456 4.81238 9.16634 4.99961 9.16634C5.18684 9.16634 5.33863 9.01456 5.33863 8.82732V5.22617C5.33863 4.99123 5.2453 4.76592 5.07918 4.5998L1.99048 1.51105Z" fill="white"/>
<path d="M8.48831 1.96048V3.90606C8.48831 4.0933 8.64009 4.24508 8.82733 4.24508C9.01456 4.24508 9.16634 4.0933 9.16634 3.90606V1.22671C9.16634 1.00927 8.99008 0.833008 8.77265 0.833008H6.09334C5.9061 0.833008 5.75432 0.984792 5.75432 1.17203C5.75432 1.35926 5.9061 1.51105 6.09334 1.51105H7.97412L5.59302 3.65407C5.45385 3.77933 5.44257 3.99369 5.56782 4.13286C5.69308 4.27203 5.90743 4.28331 6.0466 4.15806L8.48831 1.96048Z" fill="white"/>
</g>
<defs>
<clipPath id="clip0_25622_181423">
<rect width="10" height="10" fill="white"/>
</clipPath>
</defs>
</svg>
