<svg width="30" height="30" viewBox="0 0 30 30" fill="none" xmlns="http://www.w3.org/2000/svg">
<g id="BetR Icons">
<path id="Combined-Shape" fill-rule="evenodd" clip-rule="evenodd" d="M19.3421 3.75C20.9873 3.81362 22.5528 4.51683 23.7206 5.72703L28.538 10.7197C28.8207 11.0126 28.8207 11.4874 28.538 11.7803L24.1959 16.2803C23.9133 16.5732 23.4551 16.5732 23.1725 16.2803L22.2368 15.3107V25.5C22.2368 25.9142 21.9128 26.25 21.5132 26.25H8.48684C8.08716 26.25 7.76316 25.9142 7.76316 25.5V15.3107L6.82751 16.2803C6.5449 16.5732 6.08668 16.5732 5.80407 16.2803L1.46196 11.7803C1.17935 11.4874 1.17935 11.0126 1.46196 10.7197L6.27942 5.72703C7.50088 4.46116 9.15752 3.75 10.8849 3.75L10.6579 3.75605L19.3421 3.75ZM20.7895 23.25H9.21053V24.75H20.7895V23.25ZM10.9054 5.25135L10.8849 5.25C9.54139 5.25 8.25289 5.80312 7.30287 6.78769L5.16803 9L8.98327 12.9525C9.12029 13.0839 9.21053 13.2727 9.21053 13.5V21.75H20.7895V13.5C20.7895 13.2727 20.8797 13.0839 21.0167 12.9525L24.8305 9L22.6971 6.78769C21.7471 5.80312 20.4586 5.25 19.1151 5.25L19.0946 5.25135C18.4981 6.99843 16.8901 8.25 15 8.25C13.1099 8.25 11.5019 6.99843 10.9054 5.25135ZM15 10.5C16.3989 10.5 17.5329 11.6753 17.5329 13.125C17.5329 13.8257 17.268 14.4623 16.8363 14.9331C17.4822 15.4802 17.8947 16.3152 17.8947 17.25C17.8947 18.9069 16.5987 20.25 15 20.25C13.4013 20.25 12.1053 18.9069 12.1053 17.25C12.1053 16.3152 12.5178 15.4802 13.1646 14.93C12.732 14.4623 12.4671 13.8257 12.4671 13.125C12.4671 11.6753 13.6011 10.5 15 10.5ZM15 15.75C14.2006 15.75 13.5526 16.4216 13.5526 17.25C13.5526 18.0784 14.2006 18.75 15 18.75C15.7994 18.75 16.4474 18.0784 16.4474 17.25C16.4474 16.4216 15.7994 15.75 15 15.75ZM25.8538 10.0605L22.5364 13.4985L23.6842 14.6893L27.0029 11.25L25.8538 10.0605ZM4.14474 10.0605L2.99713 11.25L6.31579 14.6893L7.46355 13.5L4.14474 10.0605ZM15 12C14.4005 12 13.9145 12.5037 13.9145 13.125C13.9145 13.7463 14.4005 14.25 15 14.25C15.5995 14.25 16.0855 13.7463 16.0855 13.125C16.0855 12.5037 15.5995 12 15 12ZM17.5075 5.25H12.4925C12.993 6.1467 13.9285 6.75 15 6.75C16.0715 6.75 17.007 6.1467 17.5075 5.25Z" fill="white"/>
</g>
</svg>
