<svg width="24" height="25" viewBox="0 0 24 25" fill="none" xmlns="http://www.w3.org/2000/svg">
<g id="BetR Icons">
<g id="Vector">
<path fill-rule="evenodd" clip-rule="evenodd" d="M12 2.39384C11.562 2.39384 11.126 2.56045 10.7925 2.89401L2.72214 10.9644C2.38857 11.2979 2.22197 11.7339 2.22197 12.1719C2.22197 12.6099 2.38857 13.0458 2.72214 13.3794L10.7925 21.4497C11.126 21.7833 11.562 21.9499 12 21.9499C12.438 21.9499 12.874 21.7833 13.2075 21.4497L21.2779 13.3794C21.6114 13.0458 21.778 12.6099 21.778 12.1719C21.778 11.7339 21.6114 11.2979 21.2779 10.9644L13.2075 2.89401C12.874 2.56045 12.438 2.39384 12 2.39384ZM9.92842 2.02995C10.5003 1.45802 11.2512 1.17188 12 1.17188C12.7488 1.17188 13.4996 1.45802 14.0716 2.02995L22.1419 10.1003C22.7139 10.6722 23 11.4231 23 12.1719C23 12.9207 22.7139 13.6715 22.1419 14.2435L14.0716 22.3138C13.4996 22.8857 12.7488 23.1719 12 23.1719C11.2512 23.1719 10.5003 22.8857 9.92842 22.3138L1.85808 14.2435C1.28615 13.6715 1 12.9207 1 12.1719C1 11.4231 1.28615 10.6722 1.85808 10.1003L9.92842 2.02995Z" fill="#23262B"/>
<path fill-rule="evenodd" clip-rule="evenodd" d="M10.9278 14.4792C10.7641 14.4791 10.6314 14.3445 10.6314 14.1785V10.0512C10.6314 9.89153 10.7589 9.76202 10.9165 9.76202H12.3424C12.4495 9.76202 12.5476 9.80533 12.6277 9.88176C12.709 9.95936 12.8739 10.124 12.945 10.2035C13.0157 10.2824 13.0552 10.3722 13.0552 10.4735V11.4068C13.0552 11.5595 12.9331 11.6834 12.7824 11.6834H11.0426C10.9475 11.6834 10.9056 11.7915 10.9659 11.8589L13.3843 14.3016C13.4497 14.3678 13.4035 14.4799 13.3117 14.4799L10.9278 14.4792ZM15.3757 13.1359L14.4231 12.1713C14.4231 12.1713 14.8419 11.7467 15.3732 11.208C15.9044 10.6695 15.8798 9.8494 15.3732 9.25541C14.897 8.69729 13.9504 7.8051 13.71 7.56949C13.4527 7.31758 13.1185 7.17188 12.7633 7.17188H9.78317C9.07447 7.17188 8.5 7.75429 8.5 8.47267V15.8856C8.5 16.596 9.06814 17.1719 9.76889 17.1719H12.7618C13.1179 17.1719 13.454 17.0228 13.7111 16.7734C13.9522 16.5397 14.9059 15.659 15.3761 15.0854C15.903 14.4427 15.9071 13.674 15.3757 13.1359Z" fill="#23262B"/>
</g>
</g>
</svg>
